<?xml version="1.0" encoding="UTF-8" standalone="no"?>
<!-- Created with Inkscape (http://www.inkscape.org/) -->

<svg
   xmlns:dc="http://purl.org/dc/elements/1.1/"
   xmlns:cc="http://creativecommons.org/ns#"
   xmlns:rdf="http://www.w3.org/1999/02/22-rdf-syntax-ns#"
   xmlns:svg="http://www.w3.org/2000/svg"
   xmlns="http://www.w3.org/2000/svg"
   version="1.1"
   width="2700"
   height="180"
   id="svg2">
  <defs
     id="defs4" />
  <metadata
     id="metadata7">
    <rdf:RDF>
      <cc:Work
         rdf:about="">
        <dc:format>image/svg+xml</dc:format>
        <dc:type
           rdf:resource="http://purl.org/dc/dcmitype/StillImage" />
        <dc:title></dc:title>
      </cc:Work>
    </rdf:RDF>
  </metadata>
  <g
     transform="translate(0,-872.35975)"
     id="layer1">
    <path
       d="m 1305.296,1042.4012 c -27.4352,-7.278 -106.7591,-24.4231 -128.586,-27.7928 -8.9396,-1.38 -41.5942,-5.5593 -72.5669,-9.2872 l -56.3134,-6.77812 -45.3114,-2.3783 c -24.92095,-1.30806 -60.67841,-3.90499 -79.46115,-5.77097 l -34.14965,-3.3927 -33.87643,-11.3794 -33.87696,-11.37943 -28.91969,-4.8569 -28.91968,-4.85688 -28.82178,-1.9982 -28.82122,-1.99819 -20.95638,2.01178 c -11.52572,1.10648 -38.79057,4.88876 -60.58929,8.40508 -21.79816,3.51632 -43.50009,6.39331 -48.2262,6.39331 -15.90394,0 -73.82462,-11.43843 -180.09594,-35.56617 l -33.68671,-7.6483 -47.3219,-5.69661 -47.32191,-5.69662 -27.47446,-6.48337 -27.47447,-6.48338 -17.73964,-0.81458 c -9.75695,-0.44801 -30.18403,-1.28018 -45.39385,-1.84925 l -27.65422,-1.03468 -22.123374,-2.96557 C 79.696273,890.43391 -7.7707138,873.6923 5.6194623,875.11276 c 3.0585569,0.32447 25.2073757,3.45757 49.2206437,6.96243 l 43.659377,6.37248 33.742027,-1.01615 c 18.55819,-0.55889 53.17464,-1.48115 76.92519,-2.04946 l 43.18317,-1.03328 14.89069,4.12201 c 8.19007,2.26709 32.09107,6.90181 53.11325,10.29938 46.5852,7.52887 88.04663,15.97693 113.87566,23.20288 10.64688,2.9786 41.14672,9.62452 67.77775,14.76876 l 48.4198,9.35315 12.41951,-1.15266 c 6.83059,-0.63397 34.14743,-4.39809 60.70378,-8.36471 l 48.28428,-7.21207 20.85127,0.0689 c 11.46821,0.0378 49.39875,1.82768 84.28951,3.97737 l 63.43824,3.90857 19.52443,6.5273 c 10.73869,3.59001 31.18456,10.60882 45.43533,15.59738 l 25.91146,9.07009 20.64277,2.9244 c 11.35372,1.60839 50.7156,5.71068 87.4714,9.11615 36.7552,3.40548 86.7391,8.38709 111.0749,11.07024 l 44.2467,4.87847 71.901,13.63081 71.901,13.6309 49.7776,-1.1727 c 27.3777,-0.6449 76.7708,-1.6376 109.7629,-2.2059 l 59.9853,-1.0335 11.9157,-4.3347 11.9156,-4.3348 52.543,-5.0134 c 28.8987,-2.7573 79.9207,-8.12251 113.3823,-11.92263 77.0469,-8.74999 83.3963,-9.25591 144.9723,-11.55183 l 50.9487,-1.89963 37.5451,-4.78148 37.5455,-4.78149 47.9984,-0.0446 47.9989,-0.0448 33.7453,-6.0012 33.7453,-6.00121 37.169,1.09434 c 20.4431,0.6019 53.7477,1.53997 74.0099,2.08465 l 36.841,0.99028 20.594,-1.15339 20.5941,-1.15339 28.293,-7.97876 28.2936,-7.97879 30.4197,-2.53257 c 16.7307,-1.39292 45.3529,-3.41007 63.6047,-4.48255 l 33.1851,-1.94997 16.5925,-3.46536 c 9.1258,-1.90594 34.6247,-8.13431 56.6635,-13.84083 41.7607,-10.81293 58.0019,-13.64525 33.4577,-5.83476 -7.8477,2.49738 -23.3153,8.80935 -34.3719,14.02658 l -20.103,9.4859 -12.2923,2.29315 -12.2923,2.29315 -58.0739,3.69257 -58.0739,3.69256 -37.7805,11.58421 -37.7807,11.5842 -45.182,-1.00497 c -24.8502,-0.55273 -60.8719,-1.50359 -80.0485,-2.113 l -34.867,-1.10801 -17.676,4.96427 c -9.7222,2.73037 -27.5878,6.92382 -39.701,9.31882 l -22.0249,4.35455 -18.2496,0 -18.2495,0 -37.158,6.00051 c -20.4364,3.30028 -44.9231,7.38789 -54.4146,9.08358 l -17.2573,3.0831 -26.9895,1.0598 -26.9894,1.0597 -27.2604,4.0689 c -14.993,2.2379 -37.3931,5.1557 -49.7779,6.4839 l -22.5172,2.4148 -32.237,0.6777 c -17.7308,0.3728 -62.321,1.4051 -99.0895,2.294 l -66.8518,1.6164 -19.7822,4.7798 -19.7822,4.7799 -4.9523,5.1553 -4.9529,5.1552 -9.663,0.9156 -9.6628,0.9156 -24.1422,-1.6618 c -33.543,-2.3088 -68.1036,-2.1374 -118.9381,0.5902 -23.9114,1.2829 -59.6717,2.7712 -79.4672,3.3073 l -35.9913,0.9747 -22.0825,-5.8581 z M 2697.0447,899.4715 c -1798.0298,101.9255 -899.0149,50.96275 0,0 z"
       id="path3050"
       style="fill:#000000" />
  </g>
</svg>
